<?xml version="1.0" encoding="utf-8" ?>
<svg xmlns="http://www.w3.org/2000/svg" xmlns:xlink="http://www.w3.org/1999/xlink" width="500" height="499">
	<path fill="#586AE2" d="M311.397 132.634C311.788 132.681 312.128 132.731 312.485 132.906C314.29 133.789 316.832 135.685 317.343 137.709C317.58 138.647 317.255 139.562 316.792 140.365C314.723 139.227 311.336 136.908 310.264 134.778C310.305 133.923 310.911 133.299 311.397 132.634Z"/>
	<defs>
		<linearGradient id="gradient_0" gradientUnits="userSpaceOnUse" x1="345.20541" y1="198.11743" x2="343.57803" y2="186.57274">
			<stop offset="0" stop-color="#FFFFF9"/>
			<stop offset="1" stop-color="#F7F4FE"/>
		</linearGradient>
	</defs>
	<path fill="url(#gradient_0)" d="M326.082 194.198C325.995 193.227 325.949 192.83 326.637 192.053C329.818 188.459 337.227 186.712 341.877 186.563C348.932 186.335 356.396 189.328 361.542 194.113C361.906 194.452 362.246 194.815 362.573 195.19C362.354 195.716 362.138 196.243 361.929 196.773C357.114 192.39 352.041 189.124 345.44 188.301C338.21 187.4 331.717 189.767 326.082 194.198Z"/>
	<path fill="#FDFDFD" d="M177.189 301.426L179.952 302.397C180.193 309.244 182.435 316.159 187.559 320.927C189.861 323.069 192.621 324.755 195.439 326.124C196.417 326.599 198.026 327.089 198.855 327.731C198.904 327.769 199.068 328.216 199.073 328.241C199.099 328.384 199.063 328.606 199.045 328.753C198.867 328.837 198.784 328.891 198.566 328.906C195.434 329.113 187.803 323.859 185.436 321.797C179.2 316.366 177.738 309.295 177.189 301.426Z"/>
	<path fill="#FDFDFD" d="M164.582 260.838C165.723 261.699 166.71 262.749 167.725 263.752C166.478 271.612 167.934 278.416 172.639 284.862C175 288.096 177.714 290.87 181.102 293.019C181.837 293.485 183.508 294.16 183.543 295.056C183.138 295.174 182.826 295.214 182.399 295.198C179.179 295.083 175.033 290.937 172.939 288.683C165.017 280.159 164.23 271.985 164.582 260.838Z"/>
	<path fill="#FDFDFD" d="M320.258 302.422C320.955 302.149 321.164 302.001 321.917 302.134C322.876 303.473 322.421 305.716 322.169 307.254C321.065 313.989 317.712 319.728 312.151 323.721C308.685 326.211 301.642 329.753 297.326 329.387L296.896 329.086C296.854 328.52 296.916 328.31 297.206 327.823C301.847 326.892 306.916 324.305 310.637 321.424C316.763 316.682 319.34 309.862 320.258 302.422Z"/>
	<path fill="#FDFDFD" d="M187.318 220.424C186.797 220.511 186.381 220.581 185.882 220.343C182.973 218.951 181.335 215.172 180.408 212.251C178.395 205.91 178.799 198.626 181.947 192.745C183.634 189.592 188.927 182.803 192.45 181.908C192.974 181.776 193.047 181.854 193.478 182.119L193.583 183.134C187.816 186.844 183.998 193.272 182.568 199.885C181.223 206.104 182.39 212.216 185.851 217.516L187.431 219.889L187.318 220.424Z"/>
	<path fill="#FDFDFD" d="M335.473 261.489C336.327 271.97 335.762 278.653 328.705 286.966C325.084 291.232 319.762 295.504 313.993 296.104C313.22 296.184 312.588 296.157 311.885 295.798L311.351 295.06C312.534 294.247 314.789 293.735 316.196 293.18C321.269 291.181 325.101 287.276 328.212 282.882C331.596 278.101 334.247 269.773 333.261 263.952L335.473 261.489Z"/>
	<path fill="#FDFDFD" d="M306.69 183.692L306.57 182.327C306.84 182.06 306.85 181.917 307.271 181.933C309.727 182.026 313.656 186.554 315.093 188.364C319.555 193.982 321.725 201.283 320.851 208.384C320.252 213.256 318.452 217.226 314.505 220.264C312.796 221.579 311.034 222.504 308.972 223.141C310.473 220.796 313.017 219.167 314.615 216.836C317.712 212.317 318.495 205.487 317.494 200.203C316.277 193.782 312.075 187.392 306.69 183.692Z"/>
	<path fill="#FDFDFD" d="M177.992 261.273L177.759 261.332C174.782 260.714 171.577 258.332 169.48 256.167C163.809 250.311 161.052 242.597 161.248 234.496C161.499 224.097 165.867 218.501 173.048 211.607L173.833 214.665C168.921 217.986 165.916 224.376 164.855 230.025C163.437 237.568 165.062 245.968 169.538 252.273C171.759 255.402 174.64 257.749 177.598 260.123C177.951 260.406 177.833 260.296 178.04 260.756L177.992 261.273Z"/>
	<path fill="#FDFDFD" d="M362.573 195.19C367.85 200.587 371.027 208.267 370.944 215.825C370.868 222.854 367.31 230.508 362.234 235.339C357.604 239.747 351.527 241.143 345.481 242.547L345.931 239.626C350.948 239.017 355.59 237.028 359.479 233.793C364.436 229.669 367.331 223.16 367.871 216.791C368.452 209.93 366.422 202.062 361.929 196.773C362.138 196.243 362.354 195.716 362.573 195.19Z"/>
	<path fill="#FDFDFD" d="M326.941 215.359C327.212 214.618 327.16 214.335 327.887 213.976C330.269 214.34 333.386 218.622 334.811 220.577C338.853 226.121 340.229 233.251 339.091 239.95C337.865 247.171 333.837 254.814 327.722 259.063C325.506 260.603 319.79 263.718 317.153 263.023C316.613 262.88 316.21 262.628 315.74 262.339C316.443 261.618 319.884 260.566 320.969 260.067C324.423 258.475 327.049 256.39 329.52 253.505C334.494 247.698 336.938 240.325 336.321 232.708C335.686 224.865 332.76 220.342 326.941 215.359Z"/>
	<path fill="#FDFDFD" d="M205.219 191.687C204.748 191.645 204.179 191.624 203.784 191.335C201.904 189.963 201.348 186.152 200.962 183.982C199.968 178.411 202.376 171.62 205.651 167.161C209.522 161.89 215.866 157.429 222.414 156.452C228.866 155.489 237.948 155.624 243.389 159.797C244.759 160.847 245.614 161.753 245.838 163.487C245.698 163.462 245.559 163.439 245.42 163.41C243.255 162.959 240.839 161.01 238.762 160.085C231.519 156.86 222.131 158.033 215.457 162.142C209.7 165.688 205.635 171.63 204.116 178.193C203.041 182.838 203.633 187.237 205.219 191.687Z"/>
	<path fill="#FDFDFD" d="M253.13 164.427C253.148 162.884 253.403 162.229 254.499 161.133C258.947 156.682 266.548 156.018 272.458 156.152C280.28 156.331 286.56 159.029 291.991 164.753C296.492 169.498 299.816 176.091 299.578 182.757C299.406 187.553 297.057 192.375 293.459 195.551C292.255 196.615 291.086 197.225 289.551 197.654C290.017 196.65 290.875 195.716 291.528 194.817C293.46 192.155 295.181 189.549 296.004 186.328C297.338 181.112 296.113 175.845 293.351 171.318C289.59 165.155 283.721 160.803 276.68 159.166C270.536 157.737 263.743 158.409 258.103 161.305C256.351 162.205 254.799 163.39 253.13 164.427Z"/>
	<path fill="#FDFDFD" d="M154.018 241.055C154.231 241.567 154.317 241.948 154.355 242.5C153.998 243.094 153.953 243.212 153.216 243.34C150.346 243.839 140.564 238.924 138.304 236.934C132.852 232.13 128.409 222.282 128.173 215.003C127.898 206.545 130.335 199.745 136.204 193.608C141.032 188.558 147.924 186.075 154.831 185.976C160.029 185.902 170.568 188.806 174.351 192.509C174.529 193.317 174.288 193.763 174.05 194.545C165.456 190.312 156.407 186.087 146.719 189.328C140.377 191.45 135.315 195.982 132.385 201.99C129.374 208.164 129.4 215.799 131.619 222.217C134.036 229.204 137.948 235.081 144.738 238.355C147.464 239.669 150.994 240.804 154.018 241.055Z"/>
	<path fill="#6D3CBB" d="M66.3578 241.572C68.4013 241.435 70.1658 241.659 71.8478 242.907C73.7688 244.332 74.9515 246.734 75.2572 249.074C75.5745 251.503 74.8976 254.128 73.3939 256.07C71.8454 258.07 70.1033 258.58 67.7308 258.928C65.7969 258.892 64.0361 258.664 62.3655 257.591C60.3348 256.287 59.043 254.1 58.6404 251.742C58.2292 249.335 58.7934 246.818 60.2811 244.87C61.8521 242.812 63.8621 241.943 66.3578 241.572Z"/>
	<path fill="#6D3CBB" d="M248.478 423.777C250.326 423.682 251.895 423.748 253.657 424.431C255.913 425.305 257.833 427.017 258.749 429.281C259.634 431.466 259.526 433.987 258.535 436.118C257.162 439.07 254.71 440.46 251.788 441.52C249.744 441.908 247.607 441.63 245.747 440.664C243.591 439.544 242.06 437.597 241.348 435.286C240.629 432.951 240.654 430.365 241.879 428.2C243.321 425.651 245.749 424.459 248.478 423.777Z"/>
	<path fill="#6D3CBB" d="M248.587 59.0282C250.429 58.788 252.363 59.125 254.031 59.9428C256.27 61.0404 257.866 63.0163 258.642 65.3687C259.415 67.7106 259.37 70.2379 258.219 72.4474C256.722 75.3181 254.279 76.6253 251.329 77.5582C249.118 77.8832 246.949 77.6046 244.968 76.5131C242.834 75.3381 241.202 73.3086 240.535 70.9634C239.87 68.6232 240.289 66.1125 241.476 64.0107C243.119 61.101 245.483 59.8439 248.587 59.0282Z"/>
	<path fill="#586AE2" d="M430.526 240.806C432.572 240.576 434.496 240.664 436.455 241.376C438.911 242.268 441.005 244.064 442.015 246.503C443.008 248.901 442.987 251.774 441.902 254.138C440.593 256.992 438.186 258.434 435.353 259.458C433.391 259.863 431.517 259.967 429.605 259.262C427.346 258.428 425.635 256.592 424.658 254.422C423.562 251.989 423.423 249.22 424.429 246.734C425.588 243.87 427.75 241.999 430.526 240.806Z"/>
	<path fill="#586AE2" d="M417.073 245.861L417.703 245.815C418.124 246.558 417.825 253.792 418.066 255.716C412.811 254.244 406.574 254.738 401.133 254.738L381.529 254.837C380.933 254.328 380.448 253.639 379.953 253.029C378.494 251.1 377.321 248.985 375.817 247.08C381.441 246.812 387.118 247.004 392.75 246.953C400.911 246.879 408.944 246.548 417.073 245.861Z"/>
	<path fill="#FEA501" d="M130.265 173.648L130.499 173.742C131.197 174.766 130.749 180.725 130.695 182.323C128.981 184.571 126.785 186.562 124.795 188.569C121.587 191.803 118.383 195.043 115.124 198.225C114.996 207.05 115.045 215.895 115.022 224.722C113.443 224.598 111.815 224.664 110.23 224.656C109.788 224.658 110.02 224.715 109.571 224.368C109.174 221.081 109.434 217.512 109.442 214.198L109.523 195.163C113.29 188.935 124.565 178.829 130.265 173.648Z"/>
	<path fill="#6D3CBB" d="M82.8093 245.805C97.5032 245.625 112.227 246.14 126.931 245.952C125.075 247.401 123.742 249.127 122.297 250.958C121.437 252.129 120.496 253.181 119.516 254.249C107.145 254.692 94.7211 254.215 82.3411 254.614C82.3916 251.68 82.4294 248.718 82.8093 245.805Z"/>
	<path fill="#FEA501" d="M109.365 275.425C111.257 275.491 113.149 275.434 115.04 275.396C114.758 284.327 115.115 293.325 115.077 302.268C117.761 305.511 124.402 312.022 127.741 314.565C130.266 314.574 132.789 314.619 135.313 314.674C135.305 316.894 135.292 319.106 135.178 321.324C131.885 321.239 128.607 321.368 125.314 321.144C119.576 317.177 114.858 310.497 109.544 305.812C109.028 295.759 109.351 285.497 109.365 275.425Z"/>
	<path fill="#FEA501" d="M371.815 176.747C375.643 177.772 388.152 191.983 390.993 195.638C391.223 199.641 391.074 203.658 391.065 207.665L391.014 225.208C389.338 224.985 387.627 224.967 385.939 224.898C385.709 224.941 385.389 224.91 385.153 224.91C384.401 223.586 384.842 201.47 384.956 198.397C382.475 196.372 380.216 193.935 377.946 191.675L367.09 180.753C368.619 179.369 370.232 178.07 371.815 176.747Z"/>
	<path fill="#FEA501" d="M384.819 275.297C386.883 275.321 388.947 275.289 391.01 275.267C391.023 284.951 391.549 294.841 391.059 304.499C385.988 309.729 381.569 315.537 375.917 320.189L375.822 320.204C373.815 320.535 371.837 320.545 369.81 320.565C367.71 320.55 365.614 320.578 363.515 320.628C363.428 318.621 363.337 317.378 364.813 315.856C366.711 313.898 369.707 313.793 372.25 313.763C376.798 310.131 380.527 305.51 385.08 301.805C384.618 297.046 384.997 292.159 384.986 287.378C384.977 283.373 384.618 279.289 384.819 275.297Z"/>
	<path fill="#586AE2" d="M253.92 84.3771C254.494 84.3404 254.398 84.3736 254.828 84.6791C255.356 86.7491 255.403 126.313 254.714 127.97C254.057 129.549 251.884 131.063 250.321 131.602C249.634 131.839 249.3 131.606 248.678 131.309C247.813 130.677 247.058 129.996 246.294 129.245C245.163 114.451 246.851 99.4501 245.756 84.648C248.463 84.4728 251.207 84.4705 253.92 84.3771Z"/>
	<path fill="#586AE2" d="M246.6 365.157C249.19 364.983 251.806 365.029 254.402 365.007C254.83 375.641 254.522 386.416 254.443 397.061C254.4 402.818 254.765 408.681 254.471 414.421C254.432 415.181 254.467 415.746 253.987 416.349L253.442 416.337C250.956 416.274 248.451 416.456 245.967 416.566C246.377 411.159 246.068 405.466 246.025 400.034L245.977 377.153C245.954 374.545 245.362 367.539 246.019 365.402L246.6 365.157Z"/>
	<path fill="#FEA501" d="M194.605 108.053C204.866 108.093 215.296 108.398 225.54 107.966L225.501 114.511C215.861 114.175 206.179 114.29 196.535 114.427C194.094 116.279 191.991 118.823 189.844 121.023L179.561 131.386C178.057 133.065 176.618 134.731 175.315 136.576C175.029 141.168 175.548 145.849 175.049 150.413C173.084 151.147 170.958 151.501 168.948 152.137L169.3 133.312C170.801 131.112 173.031 129.192 174.843 127.23C178.619 123.141 190.359 109.897 194.605 108.053Z"/>
	<path fill="#FEA501" d="M276.282 108.083C285.738 108.06 295.274 107.912 304.719 108.292C310.301 111.922 317.772 120.007 322.574 124.836C325.492 127.77 328.882 130.621 331.219 134.053C331.393 137.75 331.829 149.81 331.049 152.77L330.626 152.989L330.067 152.753C328.269 151.862 326.384 151.18 324.497 150.507C324.338 145.974 324.48 141.392 324.484 136.853C317.78 128.713 309.491 121.918 302.199 114.311C293.095 114.642 283.931 114.364 274.816 114.523C274.96 112.887 274.37 109.888 275.137 108.491C275.328 108.143 275.913 108.156 276.282 108.083Z"/>
	<path fill="#FEA501" d="M169.197 341.632C171.291 341.996 173.369 342.216 175.488 342.379C175.622 349.113 175.499 355.871 175.462 362.607C180.001 367.891 186.624 373.551 191.786 378.494C193.977 380.592 196.515 382.741 198.241 385.247C201.421 384.787 204.957 385.182 208.172 385.212L225.932 385.204C225.873 387.214 225.986 389.24 226.043 391.251C220.368 391.407 214.661 391.267 208.982 391.269C204.585 391.271 200.077 391.48 195.695 391.121C193.756 389.638 191.95 387.835 190.128 386.204C182.874 379.708 176.109 372.65 169.356 365.637C169.001 362.912 169.169 360.144 169.144 357.402C169.096 352.139 169.083 346.894 169.197 341.632Z"/>
	<path fill="#FEA501" d="M330.564 342.571C330.911 342.54 330.693 342.532 331.201 342.729C331.446 345.685 331.283 348.78 331.289 351.751C331.298 356.291 331.391 360.85 331.215 365.386C329.302 367.719 326.982 369.748 324.898 371.929C319.464 377.616 311.244 386.725 304.833 391.176C300.789 391.377 296.62 391.116 292.566 391.093C286.653 391.059 280.735 391.184 274.823 391.263C274.757 391.205 274.682 391.155 274.626 391.087C273.632 389.906 274.119 386.7 274.258 385.228L301.913 385.146C304.4 382.868 306.738 380.364 309.137 377.989L325.016 362.336C324.481 356.125 324.73 349.69 324.693 343.448C326.682 343.276 328.604 342.951 330.564 342.571Z"/>
	<path fill="#E17622" d="M97.5532 269.519C99.6851 269.512 101.919 269.368 104.029 269.688C104.181 274.466 103.765 279.4 103.752 284.202C103.731 292.214 104.038 300.363 103.583 308.358C108.181 314.144 113.961 319.466 119.294 324.584C123.089 328.226 126.778 331.974 130.609 335.58C133.744 335.424 136.822 335.294 139.956 335.559C140.114 336.964 140.545 339.998 139.701 341.133C136.812 342.523 131.46 341.98 128.217 341.976C123.14 338.764 116.114 329.917 111.6 325.46C109.45 323.337 107.065 321.437 104.839 319.391C102.323 317.079 99.9326 314.611 97.52 312.192C97.1787 303.918 97.451 295.514 97.4412 287.226C97.4344 281.408 97.0074 275.293 97.5532 269.519Z"/>
	<path fill="#FEA501" d="M129.257 156.749C132.239 156.5 135.272 156.548 138.264 156.511C138.267 158.99 138.366 161.508 138.059 163.971C135.734 163.978 133.421 164.217 131.091 164.211C126.447 169.335 121.337 173.946 116.39 178.757C114.31 180.779 112.37 182.985 110.351 185.072C108.121 187.376 105.745 189.633 103.76 192.153C103.496 204.98 103.552 217.935 103.836 230.761C102.517 231.652 99.8438 231.401 98.3085 231.08C98.0218 231.02 97.7415 230.938 97.4625 230.85C97.4203 216.802 97.3448 202.738 97.5002 188.691C100.732 184.019 107.666 178.723 111.864 174.471C116.894 169.376 123.81 160.781 129.257 156.749Z"/>
	<path fill="#E17622" d="M396.99 270.25C399.085 270.249 401.19 270.295 403.284 270.234C404.143 272.964 403.559 282.105 403.549 285.476L403.489 311.87C402.488 313.107 401.158 314.174 400.011 315.288C396.625 318.578 393.118 321.718 389.708 324.975C386.919 327.64 384.556 330.755 381.852 333.516C379.394 336.027 373.69 342.506 370.354 343.266C368.031 343.795 365.247 343.58 362.86 343.607C362.82 341.479 362.827 339.363 362.888 337.235C364.449 337.204 366.021 337.251 367.584 337.261C375.06 330.052 382.667 322.83 389.815 315.298C392.185 312.801 394.978 310.216 396.836 307.318C396.553 300.219 396.837 293.008 396.82 285.897C396.812 282.558 396.295 272.962 396.99 270.25Z"/>
	<path fill="#FEA501" d="M362.168 162.062C362.087 160.32 361.794 158.52 362.434 156.866C363.201 156.159 363.656 156.063 364.685 156.112L369.519 156.296C371.614 157.634 373.438 159.697 375.233 161.418C377.712 163.795 380.301 166.087 382.713 168.529C384.619 170.46 386.375 172.54 388.299 174.45C390.943 177.074 402.706 186.986 403.283 189.826C404.056 193.627 403.911 229.215 403.166 231.548C401.058 231.471 398.952 231.389 396.842 231.378C396.476 225.952 396.739 220.365 396.761 214.919C396.79 207.609 396.656 200.236 397.025 192.937C394.927 190.383 392.53 188.155 390.193 185.826L377.881 173.754C374.322 170.28 370.969 166.321 367.215 163.082C366.633 162.58 366.038 162.152 365.257 162.052C364.259 161.923 363.172 162.023 362.168 162.062Z"/>
	<path fill="#FEA501" d="M225.009 95.1724L225.32 95.2853C225.954 97.2192 225.485 100.502 225.465 102.591C214.092 102.255 202.729 102.547 191.356 102.487C189.217 104.23 187.301 106.341 185.335 108.284L174.003 119.608C170.57 123.081 166.455 126.508 163.578 130.408C162.509 137.64 163.231 146.982 163.249 154.437C161.306 155.596 158.9 156.698 157.319 158.319C156.931 158.2 157.12 158.296 156.767 158.004L156.885 157.596L156.73 157.588C156.612 147.717 156.673 137.843 156.737 127.971C157.958 126.133 159.764 124.543 161.311 122.972C165.402 118.819 169.712 114.907 173.811 110.776C178.747 105.8 183.143 99.5795 188.881 95.4929C200.902 94.796 212.979 95.5405 225.009 95.1724Z"/>
	<path fill="#FEA501" d="M157.373 335.595C159.416 336.499 161.397 338.041 163.276 339.26C163.568 349.023 163.542 358.862 163.464 368.63C165.994 371.725 169.287 374.474 172.14 377.288C178.845 383.9 185.639 390.453 192.137 397.269C203.358 397.028 214.567 397.048 225.789 396.996C225.8 399.179 226.021 401.591 225.65 403.739C213.438 403.39 201.217 403.831 189.011 403.586C184.08 399.899 179.041 393.479 174.57 389.065C168.885 383.454 162.703 378.377 157.34 372.427C156.629 368.455 156.912 364.074 156.897 360.044C156.868 351.859 156.935 343.771 157.373 335.595Z"/>
	<path fill="#FEA501" d="M342.623 335.958L343.171 335.946C343.263 336.046 343.403 336.117 343.446 336.245C343.789 337.272 343.491 368.42 343.397 372.02C342.366 373.692 340.611 375.151 339.217 376.525C336.9 378.807 334.605 381.147 332.198 383.334C330.203 385.148 328.067 386.811 326.145 388.704C321.612 393.167 316.535 400.286 311.349 403.712C306.757 403.898 302.098 403.652 297.5 403.626C289.933 403.583 282.365 403.659 274.799 403.772L274.356 403.409C273.583 401.588 273.997 399.129 274.132 397.205L307.772 397.276C310.681 394.844 313.262 391.987 315.987 389.352C323.097 382.477 330.145 375.416 337.005 368.289C336.371 359.087 336.761 349.617 336.806 340.387C338.589 338.785 340.763 337.508 342.623 335.958Z"/>
	<path fill="#FEA501" d="M275.043 95.2687L296.502 95.1945C301.41 95.1955 306.346 95.0799 311.23 95.6234C316.182 99.433 320.97 105.989 325.436 110.498C329.992 115.099 340.708 123.335 343.695 128.372C344.117 136.506 343.78 144.817 343.825 152.97C343.835 154.765 344.223 159.777 343.906 161.108C343.858 161.31 343.711 161.476 343.614 161.66C341.361 159.926 339.255 157.949 337.259 155.93C336.925 147.963 337.149 139.962 337.29 131.993C334.407 128.252 330.793 125.117 327.475 121.771C323.742 118.008 319.963 114.356 316.142 110.684C313.234 107.89 310.378 105.002 307.174 102.543C296.464 102.318 285.686 102.342 274.976 102.539C275.281 100.144 275.007 97.6841 275.043 95.2687Z"/>
	<path fill="#586AE2" d="M326.082 194.198C331.717 189.767 338.21 187.4 345.44 188.301C352.041 189.124 357.114 192.39 361.929 196.773C366.422 202.062 368.452 209.93 367.871 216.791C367.331 223.16 364.436 229.669 359.479 233.793C355.59 237.028 350.948 239.017 345.931 239.626C346.089 236.08 345.931 232.462 345.356 228.957C343.385 216.958 337.823 211.508 328.215 204.672C327.67 201.083 327.52 197.601 326.082 194.198Z"/>
	<path fill="#586AE2" d="M154.018 241.055C150.994 240.804 147.464 239.669 144.738 238.355C137.948 235.081 134.036 229.204 131.619 222.217C129.4 215.799 129.374 208.164 132.385 201.99C135.315 195.982 140.377 191.45 146.719 189.328C156.407 186.087 165.456 190.312 174.05 194.545C173.454 197.468 172.976 200.583 172.073 203.419C161.962 210.688 156.137 218.207 154.08 230.744C153.501 234.277 153.415 237.523 154.018 241.055Z"/>
	<path fill="#586AE2" d="M318.611 327.964C318.983 328.118 318.969 328.186 319.188 328.503C319.421 331.357 319.269 334.275 319.24 337.14C319.155 345.603 318.967 353.775 313.723 360.886C308.814 367.544 299.59 372.401 291.487 373.581C280.786 375.139 272.298 371.45 263.865 365.204C259.639 361.784 256.642 357.053 253.987 352.368C257.108 352.786 260.29 353.114 263.442 353.151C273.499 353.269 281.296 348.869 288.213 341.869C289.96 340.1 291.273 337.956 293.08 336.228C293.153 336.157 293.228 336.089 293.303 336.02C303.256 335.991 310.736 334.668 318.611 327.964Z"/>
	<path fill="#586AE2" d="M179.137 326.41C181.8 327.753 184.089 330.118 186.71 331.646C190.878 334.076 195.544 335.528 200.364 335.839C202.794 335.995 205.236 335.942 207.648 336.308L208.001 336.364C209.736 337.882 211.017 339.932 212.543 341.658C213.956 343.256 215.756 344.678 217.409 346.03C227.331 354.145 234.385 353.493 246.249 352.292C243.994 356.662 240.343 362.015 236.392 364.978C234.961 366.04 233.537 367.13 232.055 368.123C224.194 373.389 215.095 375.425 205.787 373.581C197.764 371.992 189.566 366.473 185.073 359.633C180.519 352.701 179.393 345.185 178.833 337.096C178.586 333.536 178.418 329.932 179.137 326.41Z"/>
	<path fill="#586AE2" d="M138.888 245.962C140.742 245.981 144.91 248.288 147.027 248.96C149.734 249.821 153.916 250.232 156.229 251.235C157.324 251.709 157.703 252.898 158.156 253.913C157.747 257.357 157.118 260.707 156.98 264.187C156.355 279.971 159.946 286.229 170.528 297.68C170.097 303.37 170.089 308.108 172.183 313.513C172.894 315.348 174.029 317.233 174.298 319.189C174.595 321.354 174.336 323.706 174.252 325.886C174.12 329.319 173.991 332.722 174.106 336.159C170.058 334.594 166.36 333.722 162.632 331.316C155.625 326.47 152.683 319.415 150.855 311.342C148.467 311.234 146.083 310.801 143.783 310.16C136.366 308.094 129.254 302.792 125.489 296.025C120.453 286.974 119.676 275.371 122.541 265.499C124.993 257.052 131.299 250.182 138.888 245.962Z"/>
	<path fill="#586AE2" d="M361.071 245.209C361.422 245.211 361.681 245.257 361.992 245.431C363.593 246.328 365.06 247.902 366.4 249.151C371.952 254.331 376.621 259.785 378.608 267.297C381.178 277.007 379.64 287.897 374.51 296.527C372.647 299.662 370.321 302.041 367.645 304.482C361.08 310.473 357.427 312.214 348.806 314.39C346.447 321.296 342.941 327.197 337.005 331.543C333.337 334.102 329.49 335.601 325.174 336.68C325.32 331.349 324.406 325.657 325.078 320.407C325.279 318.834 326.426 317.139 326.944 315.611C328.812 310.101 329.681 304.335 329.007 298.533C330.135 296.456 332.004 294.668 333.542 292.881C337.044 288.812 340.134 284.297 342.05 279.251C343.845 274.525 343.503 268.259 343.019 263.288C342.685 259.848 341.594 255.936 342.903 252.609C343.171 251.929 343.585 251.169 344.248 250.811C346.547 249.569 350.133 249.182 352.673 248.441C355.573 247.595 358.311 246.42 361.071 245.209Z"/>
	<path fill="#586AE2" d="M383.941 260.695C389.645 260.852 395.346 260.824 401.052 260.817C404.706 260.813 408.584 260.534 412.186 261.153C413.642 261.403 415.132 261.792 416.182 262.891C417.042 263.792 417.562 264.97 417.761 266.189C418.526 270.888 418.059 276.639 418.099 281.475C418.193 292.629 418.52 303.911 417.912 315.05C417.844 316.304 417.84 317.779 417.106 318.837C415.159 321.647 412.156 323.844 409.745 326.251C403.177 332.807 396.692 339.418 390.037 345.891C387.416 348.439 385.151 351.388 382.419 353.811C381.422 354.695 380.083 355.952 378.853 356.471C374.552 358.283 363.81 358.197 358.96 357.923C358.562 357.901 358.165 357.857 357.77 357.805C358.011 362.453 358.566 374.947 356.937 378.806C356.356 380.184 355.12 381.623 354.121 382.743C351.842 385.3 348.969 387.333 346.552 389.769L327.374 408.947C324.378 411.887 321.701 415.509 318.012 417.612C316.708 418.355 314.08 418.364 312.579 418.433C309.681 418.565 306.747 418.407 303.845 418.395L286.137 418.387L273.338 418.461C270.521 418.495 267.625 418.685 264.821 418.439C263.68 418.338 262.236 418.047 261.384 417.215C260.916 416.758 260.873 416.156 260.81 415.528C260.347 410.902 260.697 405.949 260.696 401.294C260.692 391.075 260.799 380.837 260.603 370.621C262.777 371.971 268.578 374.446 269.127 377.072C269.778 380.195 269.521 383.767 269.573 386.956C269.696 394.439 269.887 402.09 269.43 409.559C279.033 409.236 288.643 409.418 298.25 409.448C303.471 409.464 308.766 409.624 313.97 409.175C319.283 405.639 321.61 401.783 325.978 397.508C333.649 390 341.552 382.845 349.016 375.119L349 348.118C349.001 342.395 348.561 336.154 349.59 330.525C350.161 327.401 351.702 323.401 353.982 321.137C355.272 319.857 356.375 319.649 358.105 319.401C357.982 329.352 358.185 339.322 357.975 349.267C363.326 348.843 368.733 348.937 374.097 348.967C375.892 347.588 377.467 345.913 379.106 344.355C383.98 339.72 388.505 334.793 393.266 330.041C395.102 328.209 396.92 326.341 398.849 324.608C400.787 322.867 402.9 321.278 404.695 319.387C406.231 317.768 407.636 315.976 408.805 314.073C408.936 299.381 408.518 284.667 409.007 269.984C407.096 270.036 405.192 270.111 403.284 270.234C401.19 270.295 399.085 270.249 396.99 270.25C392.86 269.951 388.756 270.229 384.626 270.26C384.498 267.061 384.094 263.887 383.941 260.695Z"/>
	<path fill="#586AE2" d="M261.427 125.913C261.11 121.02 260.468 84.3834 261.477 82.3914C263.026 81.7626 264.778 81.622 266.436 81.5177C273.423 81.0786 280.509 81.4516 287.513 81.465C297.654 81.4843 307.813 81.2876 317.951 81.5077C321.183 83.9282 323.592 87.6666 326.473 90.5223L346.951 110.863C349.43 113.317 352.168 115.521 354.536 118.084C355.405 119.026 357.476 121.082 357.61 122.352C357.62 122.449 357.622 122.546 357.631 122.643C358.233 129.12 357.809 136.227 357.685 142.765C362.786 142.531 371.981 141.978 376.64 142.821C377.981 143.064 378.792 143.767 379.782 144.634C383.05 147.496 385.704 150.982 388.8 154.014C391.682 156.838 394.688 159.515 397.546 162.373C401.518 166.346 405.291 170.478 409.214 174.487C412.062 177.396 415.452 179.898 417.729 183.311C418.111 186.886 417.949 190.605 417.947 194.199L417.93 211.17L418.005 223.879C418.051 226.814 418.225 229.857 417.985 232.783C417.858 234.324 417.546 236.104 416.699 237.42C415.853 238.736 414.318 239.446 412.823 239.709C409.54 240.287 405.991 239.822 402.67 239.82C396.042 239.816 389.397 239.843 382.77 239.965C378.297 240.046 373.406 239.973 369.02 240.822L368.698 240.887C371.167 237.943 373.061 234.61 375.426 231.595C382.533 231.256 389.728 231.449 396.842 231.378C398.952 231.389 401.058 231.471 403.166 231.548C405.097 231.439 407.031 231.482 408.965 231.505C408.609 228.067 408.757 224.445 408.723 220.981L408.703 198.037C408.693 194.74 409.009 191.1 408.556 187.842L408.497 187.439C408.247 185.634 406.022 183.353 404.822 182.034C402.286 179.248 399.146 176.952 396.443 174.314C391.482 169.473 386.848 164.369 382.004 159.428C379.089 156.454 375.984 153.696 373.171 150.616C367.889 150.86 362.609 150.715 357.328 150.511C357.698 154.405 357.479 158.463 357.456 162.373L357.338 182.012L352.259 179.709C349.084 172.345 349.781 163.052 349.761 155.167C349.735 145.561 350.197 135.798 349.749 126.213C348.531 124.72 347.008 123.403 345.647 122.033C341.576 117.937 337.352 114.014 333.253 109.95C326.739 103.492 320.808 96.5087 313.862 90.5219C299.108 90.4189 284.267 91.1475 269.532 90.2214C270.05 95.2341 269.725 100.643 269.625 105.687C269.506 111.715 269.516 117.729 269.6 123.756C266.842 124.419 264.14 125.071 261.427 125.913Z"/>
	<path fill="#586AE2" d="M182.516 81.5183C190.91 81.0039 199.272 81.4822 207.669 81.4374C216.406 81.3908 226.257 80.7358 234.867 81.5317C236.16 81.6513 237.631 81.8673 238.701 82.6488C240.224 86.7547 239.337 118.749 239.28 126.097C236.634 124.996 234.109 124.473 231.286 124.066C231.003 112.753 231.066 101.531 231.239 90.2209C225.925 90.7002 220.429 90.4123 215.088 90.4174L185.944 90.5497C179.139 96.1848 173.323 103.039 167.069 109.278C162.369 113.968 156.967 118.154 152.937 123.464C152.029 124.661 151.689 125.518 151.546 127.017C150.844 134.322 153.034 171.946 149.201 175.276C147.898 176.407 145.27 176.966 143.616 177.366C143.641 170.507 144.491 157.562 143.018 151.466C137.869 150.581 132.163 151.093 126.936 151.151C125.038 152.378 123.381 154.24 121.75 155.804C116.054 161.27 110.814 167.176 105.255 172.785C100.936 177.143 95.5297 181.191 91.9699 186.184C91.6409 201.077 92.0679 215.973 91.7328 230.875C93.6529 230.768 95.5409 230.787 97.4625 230.85C97.7415 230.938 98.0218 231.02 98.3085 231.08C99.8438 231.401 102.517 231.652 103.836 230.761C105.213 231.287 122.028 230.545 125.372 230.785C127.723 233.759 129.687 237.043 132.265 239.829C115.677 240.161 99.0421 239.503 82.4614 240.046L82.2439 203.297C82.2265 196.778 82.003 190.145 82.3525 183.638C82.42 182.381 83.6735 181.186 84.4911 180.283C86.5339 178.027 88.9827 176.138 91.1279 173.977C93.2442 171.845 95.2243 169.58 97.3377 167.443C101.904 162.826 106.587 158.371 111.253 153.861C114.318 150.9 116.801 147.364 120.078 144.615C120.533 144.234 121.002 143.878 121.506 143.563C127.787 143.305 137.001 144.37 142.742 142.817C144.457 138.167 143.235 126.242 143.53 120.521C146.563 116.481 150.777 113.396 154.31 109.802C160.794 103.204 167.464 96.7764 173.922 90.161C176.046 87.9856 177.897 85.5307 180.058 83.399C180.809 82.6585 181.604 82.0519 182.516 81.5183Z"/>
	<path fill="#586AE2" d="M82.3442 260.504C93.6834 260.534 105.042 260.565 116.378 260.263C115.985 262.298 115.545 268.33 114.054 269.471C112.595 270.587 106.058 269.728 104.029 269.688C101.919 269.368 99.6851 269.512 97.5532 269.519C95.6323 269.507 93.6923 269.548 91.7774 269.393C91.8928 284.338 91.1785 299.428 91.8836 314.351C95.0241 319.109 99.8403 322.203 103.856 326.143C108.619 330.817 113.092 335.769 117.826 340.451C120.271 342.868 122.898 345.126 125.432 347.452C131.283 347.486 137.143 347.41 142.992 347.587C142.925 344.563 142.635 321.796 143.035 320.676C143.625 320.549 143.667 320.596 144.168 320.9C146.802 322.501 151.321 327.558 152.027 330.609C152.734 333.666 152.236 339.742 152.231 343.185C152.215 353.971 151.945 364.826 152.27 375.604C154.473 378.146 156.696 380.825 159.12 383.153C161.416 385.359 163.956 387.296 166.243 389.525C171.018 394.178 175.562 399.026 180.257 403.748C182.087 405.589 184.107 407.239 185.829 409.187C200.793 408.64 215.972 409.015 230.935 409.492C230.647 403.087 230.76 396.63 230.75 390.219C230.743 385.609 230.562 380.927 230.758 376.324C233.462 374.295 236.458 372.71 239.207 370.747C239.336 375.734 240.057 415.788 238.829 417.159C237.208 418.967 231.855 418.554 229.552 418.54C219.719 418.478 209.899 418.24 200.061 418.269C194.094 418.286 188.05 418.668 182.098 418.489C178.72 416.029 176.292 412.561 173.29 409.694C168.977 405.576 164.515 401.655 160.292 397.433C157.418 394.559 154.812 391.43 151.918 388.578C149.182 385.88 146.197 383.425 143.519 380.673C142.797 376.159 143.121 371.269 143.115 366.693C143.111 363.31 142.938 359.913 143.035 356.532C139.481 356.789 135.865 356.655 132.301 356.644C128.539 356.633 124.731 356.738 120.979 356.486C117.014 354.002 114.199 350.121 110.94 346.833L90.8865 326.501C88.2094 323.759 85.0875 321.466 82.5104 318.632C82.0955 307.923 82.4132 297.101 82.4115 286.383L82.4016 268.636C82.3969 265.937 82.2465 263.196 82.3442 260.504Z"/>
	<path fill="#586AE2" d="M274.65 130.851C281.037 130.03 288.003 131.966 293.852 134.367C303.282 138.237 311.943 146.686 315.886 156.17C320.286 156.322 324.656 157.735 328.526 159.786C336.343 163.929 341.646 170.197 344.263 178.633C336.175 179.13 329.277 180.893 322.51 185.416C320.329 183.172 318.193 180.68 315.658 178.834C312.657 176.648 307.795 175.45 305.536 172.565C303.691 170.208 302.846 167.031 301.388 164.415C297.431 157.32 287.669 151.952 280.09 149.867C268.983 146.812 259.746 149.839 250.147 155.367C247.963 154.567 245.859 153.141 243.753 152.117C236.49 148.586 229.991 147.903 222.062 149.128C213.148 151.229 202.116 156.604 198.2 165.468C197.201 167.728 196.379 171.386 194.548 173.065C193.053 174.436 190.804 175.111 188.991 176.012C184.097 178.445 181.052 181.336 177.556 185.454C170.344 181.797 163.503 179.965 155.575 178.718C155.581 178.637 155.586 178.556 155.592 178.475C156.12 171.903 158.745 166.499 163.828 162.267C170.137 157.014 177.125 156.367 184.986 157.067C188.367 149.752 192.022 143.861 198.352 138.662C205.57 132.734 218.116 130.136 227.249 131.131C234.698 131.943 244.932 135.26 249.785 141.31C256.631 134.988 265.38 131.61 274.65 130.851Z"/>
	<path fill="#FEA501" d="M205.219 191.687C203.633 187.237 203.041 182.838 204.116 178.193C205.635 171.63 209.7 165.688 215.457 162.142C222.131 158.033 231.519 156.86 238.762 160.085C240.839 161.01 243.255 162.959 245.42 163.41C245.559 163.439 245.698 163.462 245.838 163.487C245.347 172.793 245.736 182.244 245.73 191.566L245.659 244.87L245.661 318.065C245.729 327.187 245.431 336.407 245.816 345.511C236.492 345.397 226.31 345.585 219.309 338.467C214.385 333.461 210.247 326.188 208.916 319.253C208.468 316.917 208.611 314.026 207.489 311.88C206.843 310.645 205.817 309.96 204.416 309.902C203.433 309.861 202.419 310.047 201.678 310.739C200.568 311.776 200.43 313.52 200.448 314.944C200.509 319.8 202.762 324.783 204.378 329.285C203.041 328.859 200.643 327.883 199.29 328.322L199.045 328.753C199.063 328.606 199.099 328.384 199.073 328.241C199.068 328.216 198.904 327.769 198.855 327.731C198.026 327.089 196.417 326.599 195.439 326.124C192.621 324.755 189.861 323.069 187.559 320.927C182.435 316.159 180.193 309.244 179.952 302.397C194.633 303.679 210.503 303.642 225.242 302.933C225.304 302.896 225.367 302.86 225.428 302.821C225.53 302.757 225.63 302.69 225.732 302.625C228.58 300.816 234.113 295.422 235.495 292.324C235.971 291.257 236.145 290.099 235.678 288.995C235.081 287.583 233.875 286.987 232.528 286.447C227.972 288.41 225.572 293.199 221.853 296.264C216.364 296.478 210.789 296.239 205.289 296.259C200.562 296.275 195.755 296.573 191.039 296.339C189.632 296.269 188.186 296.112 186.818 295.766C186.307 295.636 184.358 294.787 183.995 294.859C183.833 294.891 183.693 294.991 183.543 295.056C183.508 294.16 181.837 293.485 181.102 293.019C177.714 290.87 175 288.096 172.639 284.862C167.934 278.416 166.478 271.612 167.725 263.752C171.529 266.243 175.506 268.957 179.883 270.31C186.842 272.461 194.96 271.764 202.172 271.747C209.821 271.728 217.503 271.609 225.146 271.842C227.738 269.86 235.373 262.436 235.913 259.428C236.086 258.469 235.841 257.482 235.261 256.701C234.707 255.955 233.753 255.307 232.809 255.225C230.294 255.008 224.47 262.471 222.204 264.308C222.133 264.365 222.061 264.421 221.989 264.477C215.467 264.646 208.915 264.515 202.39 264.502C197.953 264.493 193.254 264.775 188.857 264.196C187.046 263.957 185.18 263.522 183.484 262.84C182.057 262.266 180.199 260.93 178.689 260.85C178.302 260.83 178.245 261.025 177.992 261.273L178.04 260.756C177.833 260.296 177.951 260.406 177.598 260.123C174.64 257.749 171.759 255.402 169.538 252.273C165.062 245.968 163.437 237.568 164.855 230.025C165.916 224.376 168.921 217.986 173.833 214.665C176.385 220.842 180.209 227.45 186.645 230.186C188.357 230.914 190.502 231.313 192.264 230.512C192.903 230.221 193.46 229.752 193.734 229.09C194.145 228.094 193.837 226.958 193.364 226.044C192.281 223.954 189.773 221.711 187.828 220.413L187.318 220.424L187.431 219.889L185.851 217.516C182.39 212.216 181.223 206.104 182.568 199.885C183.998 193.272 187.816 186.844 193.583 183.134C194.726 191.334 197.625 199.494 204.427 204.666C205.791 205.704 207.104 206.28 208.677 206.898C209.964 206.145 211.377 205.495 211.797 203.933C212.221 202.356 211.465 200.822 210.661 199.508C209.026 196.838 206.484 194.554 205.219 191.687ZM231.74 219.992C227.998 221.891 224.945 228.032 221.269 230.942L220.915 230.982C216.942 231.403 207.35 229.499 204.641 232.994C204.225 233.53 204.027 234.182 204.113 234.863C204.228 235.775 204.88 236.745 205.641 237.252C206.575 237.874 207.713 237.965 208.798 238.088C214.093 238.488 219.361 238.026 224.628 238.354C227.62 235.102 234.687 227.859 236.139 224.034C235.601 222.661 235.065 221.079 233.626 220.405C233.037 220.129 232.383 220.026 231.74 219.992ZM228.316 177.265C225.412 179.22 219.053 184.642 218.299 188.069C218.06 189.157 218.19 190.33 218.799 191.277C219.282 192.026 219.992 192.487 220.862 192.663C221.732 192.839 222.269 192.642 223.026 192.274C226.238 189.518 231.874 184.117 233.635 180.326C233.083 179.154 232.569 177.924 231.26 177.442C230.337 177.102 229.277 177.199 228.316 177.265Z"/>
	<path fill="#FEA501" d="M253.13 164.427C254.799 163.39 256.351 162.205 258.103 161.305C263.743 158.409 270.536 157.737 276.68 159.166C283.721 160.803 289.59 165.155 293.351 171.318C296.113 175.845 297.338 181.112 296.004 186.328C295.181 189.549 293.46 192.155 291.528 194.817C290.875 195.716 290.017 196.65 289.551 197.654C288.92 198.949 287.75 199.731 287.422 201.25C287.244 202.074 287.322 202.87 287.799 203.581C288.289 204.311 289.042 204.737 289.895 204.9C291.941 205.29 294.124 204.094 295.751 202.969C302.659 198.191 305.219 191.715 306.69 183.692C312.075 187.392 316.277 193.782 317.494 200.203C318.495 205.487 317.712 212.317 314.615 216.836C313.017 219.167 310.473 220.796 308.972 223.141C307.345 224.401 304.935 224.816 303.658 226.511C303.005 227.378 302.497 228.692 302.72 229.791C302.906 230.706 303.487 231.37 304.281 231.83C305.518 232.546 307.002 232.486 308.343 232.131C310.25 231.627 312.105 230.668 313.837 229.744C320.714 226.078 323.165 221.909 326.941 215.359C332.76 220.342 335.686 224.865 336.321 232.708C336.938 240.325 334.494 247.698 329.52 253.505C327.049 256.39 324.423 258.475 320.969 260.067C319.884 260.566 316.443 261.618 315.74 262.339C313.394 263.095 311.071 263.84 308.614 264.148C304.022 264.725 299.077 264.413 294.444 264.415C289.336 264.417 284.056 264.68 278.971 264.235C276.181 262.12 270.443 255.343 267.966 254.478C267.185 254.206 266.364 254.231 265.621 254.604C263.754 255.54 263.287 257.417 262.743 259.251C266.796 262.398 271.89 268.052 275.61 271.852C279.745 271.123 283.738 271.395 287.91 271.444C296.476 271.545 314.622 272.332 322.431 269.841C326.475 268.551 329.837 266.408 333.261 263.952C334.247 269.773 331.596 278.101 328.212 282.882C325.101 287.276 321.269 291.181 316.196 293.18C314.789 293.735 312.534 294.247 311.351 295.06C303.511 296.706 295.814 296.269 287.867 296.312C284.762 296.329 281.497 296.627 278.427 296.225C274.461 292.766 271.353 288.37 266.404 286.265C265.036 286.953 263.483 287.64 262.987 289.23C262.691 290.179 262.845 291.097 263.331 291.95C265.122 295.098 271.521 300.886 274.556 302.952C280.945 303.538 287.454 303.305 293.866 303.312C302.636 303.321 311.544 303.591 320.258 302.422C319.34 309.862 316.763 316.682 310.637 321.424C306.916 324.305 301.847 326.892 297.206 327.823C298.48 323.943 300.085 320.086 300.453 315.981C300.61 314.228 300.248 312.351 299.036 311.004C298.449 310.352 297.596 309.839 296.688 309.897C295.525 309.971 294.282 310.999 293.808 312.03C292.775 314.28 292.984 317.132 292.422 319.537C290.778 326.585 286.074 333.843 281.037 338.993C273.906 346.284 262.366 345.462 252.943 345.591C253.371 332.938 252.885 319.999 252.891 307.313L253.048 228.891C253.095 212.227 253.535 195.587 253.24 178.924C253.162 174.568 253.637 168.495 253.13 164.427ZM262.866 224.706C264.519 226.42 266.242 228.119 267.759 229.954C270.009 232.675 272.192 237.833 276.055 238.344C280.335 237.614 289.576 239.984 292.914 237.026C293.557 236.456 294.249 235.001 294.234 234.128C294.223 233.43 293.968 232.907 293.446 232.444C290.401 229.743 283.696 230.846 279.925 231.121C276.095 227.849 273.23 223.057 268.958 220.346C267.798 219.61 266.461 219.095 265.078 219.435C264.156 219.662 263.001 220.389 262.573 221.262C262.027 222.378 262.53 223.605 262.866 224.706ZM270.205 177.026C269.012 177.583 268.017 178.1 267.56 179.411C267.195 180.458 267.684 181.765 268.229 182.656C270.182 185.847 276.215 191.395 279.618 192.766C281.362 191.719 281.77 190.59 282.467 188.731C280.939 185.395 275.345 178.197 271.852 177.139C271.294 176.97 270.778 176.99 270.205 177.026Z"/>
	<path fill="#FDFDFD" d="M262.866 224.706C264.519 226.42 266.242 228.119 267.759 229.954C270.009 232.675 272.192 237.833 276.055 238.344C275.454 238.462 274.87 238.593 274.264 238.4C271.883 237.643 263.923 229.12 262.758 226.726C262.367 225.922 262.56 225.508 262.866 224.706Z"/>
	<path fill="#FDFDFD" d="M275.61 271.852C274.85 272.286 274.298 272.659 273.425 272.508C270.488 270.362 264.343 264.536 262.789 261.213C262.426 260.437 262.466 260.044 262.743 259.251C266.796 262.398 271.89 268.052 275.61 271.852Z"/>
	<path fill="#FDFDFD" d="M279.256 312.432C279.754 312.426 280.127 312.449 280.607 312.609C282.292 313.17 283.14 314.96 283.825 316.448C283.174 318.363 282.382 319.567 280.703 320.701C280.434 320.696 280.179 320.668 279.914 320.62C278.621 320.39 277.393 319.888 276.666 318.73C276.125 317.869 276.054 316.828 276.295 315.857C276.719 314.153 277.838 313.327 279.256 312.432Z"/>
</svg>
