<svg width="100" height="88" viewBox="0 0 100 88" fill="none" xmlns="http://www.w3.org/2000/svg">
<path d="M43.3929 35.3477C42.0928 36.1081 40.9767 37.0852 40.1082 38.2231C39.2398 39.3611 38.636 40.6375 38.3313 41.9796C37.7159 44.6901 38.3563 47.5034 40.1116 49.8008C41.8669 52.0981 44.5933 53.6912 47.691 54.2297C50.7887 54.7681 54.0039 54.2077 56.6295 52.6719C59.255 51.136 61.0757 48.7504 61.6911 46.0399C62.3064 43.3294 61.666 40.5161 59.9107 38.2188C58.1554 35.9214 55.4291 34.3283 52.3314 33.7899C49.2337 33.2514 46.0184 33.8118 43.3929 35.3477ZM75.1562 21.9883C73.9955 20.9727 72.5893 20.1719 71.0491 19.6445C67.0089 18.2578 58.192 18.3164 52.5 18.375C51.5848 18.375 50.7366 18.3945 50 18.3945C49.2634 18.3945 48.3929 18.3945 47.4554 18.375C41.7634 18.3164 32.9911 18.2383 28.9509 19.6445C27.4107 20.1719 26.0268 20.9727 24.8438 21.9883C23.6607 23.0039 22.7679 24.2344 22.1652 25.582C20.5804 29.1172 20.6696 36.8516 20.7143 41.832C20.7143 42.6328 20.7366 43.375 20.7366 44C20.7366 44.625 20.7366 45.3672 20.7143 46.168C20.6696 51.1484 20.5804 58.8828 22.1652 62.418C22.7679 63.7656 23.683 64.9766 24.8438 66.0117C26.0045 67.0469 27.4107 67.8281 28.9509 68.3555C32.9911 69.7422 41.808 69.6836 47.5 69.625C48.4152 69.625 49.2634 69.6055 50 69.6055C50.7366 69.6055 51.6071 69.6055 52.5446 69.625C58.2366 69.6836 67.0089 69.7617 71.0491 68.3555C72.5893 67.8281 73.9732 67.0273 75.1562 66.0117C76.3393 64.9961 77.2321 63.7656 77.8348 62.418C79.442 58.9023 79.3527 51.207 79.2857 46.207C79.2857 45.3867 79.2634 44.625 79.2634 43.9805C79.2634 43.3359 79.2634 42.5938 79.2857 41.7539C79.3527 36.7734 79.442 29.0781 77.8348 25.543C77.2321 24.1953 76.317 22.9844 75.1562 21.9492V21.9883ZM60.1786 30.6797C64.216 33.0418 67.0157 36.7105 67.9618 40.8788C68.9078 45.0471 67.9227 49.3735 65.2232 52.9062C63.8865 54.6555 62.1692 56.1572 60.1692 57.3258C58.1693 58.4943 55.9259 59.3067 53.5671 59.7166C48.8033 60.5443 43.8589 59.6824 39.8214 57.3203C35.784 54.9608 32.9831 51.2946 32.035 47.1281C31.0868 42.9617 32.0691 38.6363 34.7656 35.1035C37.4622 31.5707 41.6522 29.12 46.4138 28.2904C51.1755 27.4607 56.1188 28.3202 60.1562 30.6797H60.1786ZM66.6964 30.4258C66.0045 30.0156 65.4464 29.4297 65.1116 28.7461C64.7768 28.0625 64.7098 27.3203 64.8661 26.5781C65.0223 25.8359 65.4464 25.1914 66.0268 24.6641C66.6071 24.1367 67.3884 23.7852 68.2143 23.6484C69.0402 23.5117 69.9107 23.5703 70.692 23.8633C71.4732 24.1562 72.1429 24.625 72.6116 25.2305C73.0804 25.8359 73.3259 26.5586 73.3259 27.3008C73.3259 27.7891 73.2143 28.2773 73.0134 28.7266C72.8125 29.1758 72.4777 29.5859 72.0982 29.9375C71.7188 30.2891 71.2277 30.5625 70.7143 30.7578C70.2009 30.9531 69.6429 31.0508 69.0848 31.0508C68.2366 31.0508 67.4107 30.8359 66.7188 30.4258H66.6964ZM100 12.75C100 5.85547 93.5938 0.25 85.7143 0.25H14.2857C6.40625 0.25 0 5.85547 0 12.75V75.25C0 82.1445 6.40625 87.75 14.2857 87.75H85.7143C93.5938 87.75 100 82.1445 100 75.25V12.75ZM79.6875 69.9766C75.5134 73.6289 70.4464 74.7812 64.7321 75.0352C58.8393 75.3281 41.1607 75.3281 35.2679 75.0352C29.5536 74.7812 24.4866 73.6289 20.3125 69.9766C16.1384 66.3242 14.8214 61.8906 14.5536 56.8906C14.2187 51.7344 14.2187 36.2656 14.5536 31.1094C14.8437 26.1094 16.1384 21.6758 20.3125 18.0234C24.4866 14.3711 29.5759 13.2187 35.2679 12.9844C41.1607 12.6914 58.8393 12.6914 64.7321 12.9844C70.4464 13.2383 75.5134 14.3711 79.6875 18.0234C83.8616 21.6758 85.1786 26.1094 85.4464 31.1094C85.7812 36.2461 85.7812 51.6953 85.4464 56.8711C85.1562 61.8711 83.8616 66.3047 79.6875 69.957V69.9766Z" fill="#B197FC"/>
</svg>
