<svg width="100" height="98" viewBox="0 0 100 98" fill="none" xmlns="http://www.w3.org/2000/svg">
<path d="M50 0.5625C22.379 0.5625 0 22.2422 0 49C0 75.7578 22.379 97.4375 50 97.4375C77.621 97.4375 100 75.7578 100 49C100 22.2422 77.621 0.5625 50 0.5625ZM73.1855 33.5117C72.4395 41.168 69.1734 59.7617 67.5202 68.3359C66.8145 71.9688 65.4436 73.1797 64.1129 73.2969C61.2097 73.5508 59.0121 71.4414 56.1895 69.6445C51.7944 66.8516 49.2944 65.1133 45.0403 62.3789C40.1008 59.2344 43.3064 57.4961 46.1089 54.6641C46.8548 53.9219 59.6371 42.6523 59.879 41.6367C59.9194 41.5 59.9395 41.0312 59.6371 40.7773C59.3347 40.5234 58.9113 40.6211 58.6089 40.6797C58.1653 40.7708 51.1358 45.2695 37.5202 54.1758C35.5309 55.5039 33.7231 56.1484 32.0968 56.1094C30.3024 56.0703 26.875 55.1328 24.3145 54.332C21.1895 53.3555 18.6895 52.8281 18.9113 51.1484C19.0188 50.276 20.2621 49.3841 22.6411 48.4727C37.211 42.3268 46.9288 38.2708 51.7944 36.3047C65.6855 30.7188 68.5686 29.7422 70.4436 29.7031C70.8669 29.7031 71.7742 29.8008 72.379 30.2695C72.7738 30.6057 73.0253 31.0722 73.0847 31.5781C73.1937 32.2169 73.2275 32.8656 73.1855 33.5117Z" fill="#B197FC"/>
</svg>
