<svg width="100" height="88" viewBox="0 0 100 88" fill="none" xmlns="http://www.w3.org/2000/svg">
<path d="M85.0223 12.9648C75.6696 4.76172 63.2143 0.25 49.9777 0.25C22.6562 0.25 0.424107 19.7031 0.424107 43.6094C0.424107 51.2461 2.70089 58.707 7.03125 65.2891L0 87.75L26.2723 81.7148C33.5045 85.1719 41.6518 86.9883 49.9554 86.9883H49.9777C77.2768 86.9883 100 67.5352 100 43.6289C100 32.0469 94.375 21.168 85.0223 12.9648ZM49.9777 79.6836C42.567 79.6836 35.3125 77.9453 28.9955 74.6641L27.5 73.8828L11.9196 77.457L16.0714 64.1563L15.0893 62.7891C10.9598 57.0469 8.79464 50.4258 8.79464 43.6094C8.79464 23.7461 27.2768 7.57422 50 7.57422C61.0045 7.57422 71.3393 11.3242 79.1071 18.1406C86.875 24.957 91.6518 34 91.6295 43.6289C91.6295 63.5117 72.6786 79.6836 49.9777 79.6836ZM72.567 52.6914C71.3393 52.1445 65.2455 49.5273 64.1071 49.1758C62.9688 48.8047 62.1429 48.6289 61.317 49.7227C60.4911 50.8164 58.125 53.2383 57.3884 53.9805C56.6741 54.7031 55.9375 54.8008 54.7098 54.2539C47.433 51.0703 42.6562 48.5703 37.8571 41.3633C36.5848 39.4492 39.1295 39.5859 41.4955 35.4453C41.8973 34.7227 41.6964 34.0977 41.3839 33.5508C41.0714 33.0039 38.5938 27.6719 37.567 25.5039C36.5625 23.3945 35.5357 23.6875 34.7768 23.6484C34.0625 23.6094 33.2366 23.6094 32.4107 23.6094C31.5848 23.6094 30.2455 23.8828 29.1071 24.957C27.9687 26.0508 24.7768 28.668 24.7768 34C24.7768 39.332 29.2188 44.4883 29.8214 45.2109C30.4464 45.9336 38.5491 56.8711 50.9821 61.5781C58.8393 64.5469 61.9196 64.8008 65.8482 64.293C68.2366 63.9805 73.1696 61.6758 74.1964 59.1367C75.2232 56.5977 75.2232 54.4297 74.9107 53.9805C74.6205 53.4922 73.7946 53.2188 72.567 52.6914Z" fill="#B197FC"/>
</svg>
