<svg width="48" height="47" viewBox="0 0 48 47" fill="none" xmlns="http://www.w3.org/2000/svg">
<path d="M8 41V34.6L36.55 6.05C36.9167 5.68333 37.2917 5.41667 37.675 5.25C38.0583 5.08333 38.4667 5 38.9 5C39.3 5 39.6917 5.08333 40.075 5.25C40.4583 5.41667 40.8333 5.68333 41.2 6.05L42.95 7.8C43.3167 8.13333 43.5833 8.49167 43.75 8.875C43.9167 9.25833 44 9.66667 44 10.1C44 10.5 43.9167 10.9 43.75 11.3C43.5833 11.7 43.3167 12.0833 42.95 12.45L14.4 41H8ZM11 38H13.2L35.5 15.7L34.4 14.6L33.3 13.5L11 35.8V38ZM34.4 14.6L33.3 13.5L35.5 15.7L34.4 14.6ZM28 41C30.6 41 32.9167 40.3917 34.95 39.175C36.9833 37.9583 38 36.2333 38 34C38 32.6667 37.5083 31.4417 36.525 30.325C35.5417 29.2083 34 28.3333 31.9 27.7L29.55 30.05C31.2167 30.45 32.5417 31.0167 33.525 31.75C34.5083 32.4833 35 33.2333 35 34C35 35.0667 34.325 36 32.975 36.8C31.625 37.6 29.9667 38 28 38C27.6 38 27.25 38.1417 26.95 38.425C26.65 38.7083 26.5 39.0667 26.5 39.5C26.5 39.9 26.65 40.25 26.95 40.55C27.25 40.85 27.6 41 28 41ZM12 26.3L14.4 23.9C12.6 23.4667 11.25 23.0083 10.35 22.525C9.45 22.0417 9 21.5333 9 21C9 20.4667 9.35833 19.9583 10.075 19.475C10.7917 18.9917 12.2667 18.3333 14.5 17.5C17.2667 16.4667 19.125 15.475 20.075 14.525C21.025 13.575 21.5 12.4167 21.5 11.05C21.5 9.18333 20.8167 7.70833 19.45 6.625C18.0833 5.54167 16.2667 5 14 5C12.6 5 11.3333 5.24167 10.2 5.725C9.06667 6.20833 8.21667 6.81667 7.65 7.55C7.38333 7.85 7.25833 8.2 7.275 8.6C7.29167 9 7.48333 9.33333 7.85 9.6C8.18333 9.86667 8.55833 9.975 8.975 9.925C9.39167 9.875 9.73333 9.71667 10 9.45C10.5 8.95 11.0667 8.58333 11.7 8.35C12.3333 8.11667 13.1 8 14 8C15.5333 8 16.6667 8.3 17.4 8.9C18.1333 9.5 18.5 10.2167 18.5 11.05C18.5 11.7167 18.1833 12.3 17.55 12.8C16.9167 13.3 15.5 13.95 13.3 14.75C10.1667 15.8833 8.16667 16.9167 7.3 17.85C6.43333 18.7833 6 19.8333 6 21C6 22.0667 6.46667 23.1 7.4 24.1C8.33333 25.1 9.86667 25.8333 12 26.3Z" fill="#7E4BDE"/>
</svg>
