<svg width="48" height="48" viewBox="0 0 48 48" fill="none" xmlns="http://www.w3.org/2000/svg">
<g clip-path="url(#clip0_14_50)">
<path d="M25.75 33H-1C-1.8 33 -2.5 32.7 -3.1 32.1C-3.7 31.5 -4 30.8 -4 30V4C-4 3.2 -3.7 2.5 -3.1 1.9C-2.5 1.3 -1.8 1 -1 1H33C33.8 1 34.5 1.3 35.1 1.9C35.7 2.5 36 3.2 36 4V30C36 30.8 35.7 31.5 35.1 32.1C34.5 32.7 33.8 33 33 33H29.982L19.85 22.65C19.15 23.25 18.4 23.6833 17.6 23.95C16.8 24.2167 15.95 24.35 15.05 24.35C12.7167 24.35 10.7083 23.5333 9.025 21.9C7.34167 20.2667 6.5 18.2583 6.5 15.875C6.5 13.4917 7.34167 11.4917 9.025 9.875C10.7083 8.25833 12.7167 7.45 15.05 7.45C17.3833 7.45 19.3583 8.25833 20.975 9.875C22.5917 11.4917 23.4 13.5 23.4 15.9C23.4 16.74 23.275 17.5333 23.025 18.28C22.775 19.0267 22.4167 19.7667 21.95 20.5L31.25 30H33V4H-1V30H22.75L25.75 33ZM15.05 21.35C16.5833 21.35 17.8583 20.8333 18.875 19.8C19.8917 18.7667 20.4 17.4583 20.4 15.875C20.4 14.2917 19.8917 12.9917 18.875 11.975C17.8583 10.9583 16.5833 10.45 15.05 10.45C13.5167 10.45 12.2083 10.9583 11.125 11.975C10.0417 12.9917 9.5 14.2917 9.5 15.875C9.5 17.4583 10.0417 18.7667 11.125 19.8C12.2083 20.8333 13.5167 21.35 15.05 21.35Z" fill="#7E4BDE"/>
</g>
<defs>
<clipPath id="clip0_14_50">
<rect width="48" height="48" fill="white"/>
</clipPath>
</defs>
</svg>
