<svg width="48" height="48" viewBox="0 0 48 48" fill="none" xmlns="http://www.w3.org/2000/svg">
<path d="M4 13.35V9C4 8.23333 4.3 7.54167 4.9 6.925C5.5 6.30833 6.2 6 7 6H41C41.7667 6 42.4583 6.30833 43.075 6.925C43.6917 7.54167 44 8.23333 44 9V13.35H41V9H7V13.35H4ZM16.5 42V38H7C6.2 38 5.5 37.6917 4.9 37.075C4.3 36.4583 4 35.7667 4 35V30.35H7V35H41V30.35H44V35C44 35.7667 43.6917 36.4583 43.075 37.075C42.4583 37.6917 41.7667 38 41 38H31.5V42H16.5ZM8.2 22L14.1 16.1L12 14L4 22L12 30L14.1 27.9L8.2 22ZM39.8 22L33.9 27.9L36 30L44 22L36 14L33.9 16.1L39.8 22Z" fill="#7E4BDE"/>
</svg>
